<svg viewBox="0 0 24 24" fill="none" xmlns="http://www.w3.org/2000/svg">
<path d="M15.7101 8.28983C15.6171 8.19611 15.5065 8.12171 15.3847 8.07094C15.2628 8.02017 15.1321 7.99404 15.0001 7.99404C14.8681 7.99404 14.7374 8.02017 14.6155 8.07094C14.4936 8.12171 14.383 8.19611 14.2901 8.28983L12.0001 10.5898L9.71008 8.28983C9.52178 8.10153 9.26638 7.99574 9.00008 7.99574C8.73378 7.99574 8.47838 8.10153 8.29008 8.28983C8.10178 8.47814 7.99599 8.73353 7.99599 8.99984C7.99599 9.26614 8.10178 9.52153 8.29008 9.70984L10.5901 11.9998L8.29008 14.2898C8.19635 14.3828 8.12196 14.4934 8.07119 14.6153C8.02042 14.7371 7.99428 14.8678 7.99428 14.9998C7.99428 15.1318 8.02042 15.2626 8.07119 15.3844C8.12196 15.5063 8.19635 15.6169 8.29008 15.7098C8.38304 15.8036 8.49364 15.878 8.6155 15.9287C8.73736 15.9795 8.86807 16.0056 9.00008 16.0056C9.13209 16.0056 9.2628 15.9795 9.38466 15.9287C9.50652 15.878 9.61712 15.8036 9.71008 15.7098L12.0001 13.4098L14.2901 15.7098C14.383 15.8036 14.4936 15.878 14.6155 15.9287C14.7374 15.9795 14.8681 16.0056 15.0001 16.0056C15.1321 16.0056 15.2628 15.9795 15.3847 15.9287C15.5065 15.878 15.6171 15.8036 15.7101 15.7098C15.8038 15.6169 15.8782 15.5063 15.929 15.3844C15.9797 15.2626 16.0059 15.1318 16.0059 14.9998C16.0059 14.8678 15.9797 14.7371 15.929 14.6153C15.8782 14.4934 15.8038 14.3828 15.7101 14.2898L13.4101 11.9998L15.7101 9.70984C15.8038 9.61687 15.8782 9.50627 15.929 9.38441C15.9797 9.26255 16.0059 9.13185 16.0059 8.99984C16.0059 8.86782 15.9797 8.73712 15.929 8.61526C15.8782 8.4934 15.8038 8.3828 15.7101 8.28983ZM19.0701 4.92984C18.1476 3.97473 17.0442 3.21291 15.8241 2.68882C14.6041 2.16473 13.2919 1.88887 11.9641 1.87733C10.6363 1.86579 9.3195 2.11881 8.09054 2.62162C6.86158 3.12443 5.74506 3.86696 4.80613 4.80589C3.8672 5.74481 3.12467 6.86133 2.62186 8.09029C2.11905 9.31926 1.86604 10.6361 1.87757 11.9638C1.88911 13.2916 2.16498 14.6038 2.68907 15.8239C3.21316 17.0439 3.97498 18.1474 4.93008 19.0698C5.85255 20.0249 6.95599 20.7868 8.17603 21.3109C9.39607 21.8349 10.7083 22.1108 12.0361 22.1223C13.3639 22.1339 14.6807 21.8809 15.9096 21.3781C17.1386 20.8752 18.2551 20.1327 19.194 19.1938C20.133 18.2549 20.8755 17.1383 21.3783 15.9094C21.8811 14.6804 22.1341 13.3636 22.1226 12.0358C22.111 10.708 21.8352 9.39583 21.3111 8.17579C20.787 6.95575 20.0252 5.8523 19.0701 4.92984ZM17.6601 17.6598C16.3521 18.9692 14.6306 19.7847 12.7889 19.9671C10.9471 20.1496 9.09908 19.6879 7.5596 18.6606C6.02012 17.6333 4.88444 16.104 4.34605 14.3333C3.80767 12.5626 3.89988 10.66 4.60699 8.94962C5.3141 7.23926 6.59235 5.82698 8.22397 4.9534C9.85559 4.07981 11.7396 3.79897 13.5551 4.15871C15.3706 4.51845 17.0051 5.49653 18.1803 6.9263C19.3555 8.35607 19.9986 10.1491 20.0001 11.9998C20.0036 13.0511 19.7987 14.0927 19.397 15.0642C18.9953 16.0358 18.405 16.918 17.6601 17.6598Z"/>
</svg>
