<svg viewBox="0 0 23 24" fill="none" xmlns="http://www.w3.org/2000/svg">
<path d="M20.7786 11.6C18.9455 6.91 15.4973 4 11.7768 4C8.05625 4 4.60798 6.91 2.77495 11.6C2.72498 11.7262 2.69919 11.8623 2.69919 12C2.69919 12.1377 2.72498 12.2738 2.77495 12.4C4.60798 17.09 8.05625 20 11.7768 20C15.4973 20 18.9455 17.09 20.7786 12.4C20.8285 12.2738 20.8543 12.1377 20.8543 12C20.8543 11.8623 20.8285 11.7262 20.7786 11.6ZM11.7768 18C8.8911 18 6.17785 15.71 4.60798 12C6.17785 8.29 8.8911 6 11.7768 6C14.6624 6 17.3757 8.29 18.9455 12C17.3757 15.71 14.6624 18 11.7768 18ZM11.7768 8C11.0589 8 10.3571 8.2346 9.76017 8.67412C9.16326 9.11365 8.69802 9.73836 8.4233 10.4693C8.14857 11.2002 8.07669 12.0044 8.21674 12.7804C8.3568 13.5563 8.7025 14.269 9.21013 14.8284C9.71776 15.3878 10.3645 15.7688 11.0686 15.9231C11.7727 16.0775 12.5026 15.9983 13.1658 15.6955C13.8291 15.3928 14.396 14.8801 14.7948 14.2223C15.1936 13.5645 15.4065 12.7911 15.4065 12C15.4065 10.9391 15.0241 9.92172 14.3434 9.17157C13.6627 8.42143 12.7394 8 11.7768 8ZM11.7768 14C11.4178 14 11.0669 13.8827 10.7685 13.6629C10.47 13.4432 10.2374 13.1308 10.1 12.7654C9.96266 12.3999 9.92672 11.9978 9.99675 11.6098C10.0668 11.2219 10.2396 10.8655 10.4934 10.5858C10.7473 10.3061 11.0706 10.1156 11.4227 10.0384C11.7747 9.96126 12.1397 10.0009 12.4713 10.1522C12.8029 10.3036 13.0864 10.56 13.2858 10.8889C13.4852 11.2178 13.5916 11.6044 13.5916 12C13.5916 12.5304 13.4004 13.0391 13.0601 13.4142C12.7197 13.7893 12.2581 14 11.7768 14Z"/>
</svg>
