<svg viewBox="0 0 24 24" fill="none" xmlns="http://www.w3.org/2000/svg">
<path d="M21.71 3.28994C21.617 3.19621 21.5064 3.12182 21.3846 3.07105C21.2627 3.02028 21.132 2.99414 21 2.99414C20.868 2.99414 20.7373 3.02028 20.6154 3.07105C20.4936 3.12182 20.383 3.19621 20.29 3.28994L2.29 21.2899C2.19627 21.3829 2.12188 21.4935 2.07111 21.6154C2.02034 21.7372 1.9942 21.8679 1.9942 21.9999C1.9942 22.132 2.02034 22.2627 2.07111 22.3845C2.12188 22.5064 2.19627 22.617 2.29 22.7099C2.38296 22.8037 2.49356 22.8781 2.61542 22.9288C2.73728 22.9796 2.86799 23.0057 3 23.0057C3.13201 23.0057 3.26272 22.9796 3.38458 22.9288C3.50644 22.8781 3.61704 22.8037 3.71 22.7099L21.71 4.70994C21.8037 4.61698 21.8781 4.50638 21.9289 4.38452C21.9797 4.26266 22.0058 4.13195 22.0058 3.99994C22.0058 3.86793 21.9797 3.73722 21.9289 3.61536C21.8781 3.4935 21.8037 3.3829 21.71 3.28994V3.28994Z"/>
<path d="M21.92 11.6C19.9 6.91 16.1 4 12 4C7.90001 4 4.10001 6.91 2.08001 11.6C2.02494 11.7262 1.99652 11.8623 1.99652 12C1.99652 12.1377 2.02494 12.2738 2.08001 12.4C4.10001 17.09 7.90001 20 12 20C16.1 20 19.9 17.09 21.92 12.4C21.9751 12.2738 22.0035 12.1377 22.0035 12C22.0035 11.8623 21.9751 11.7262 21.92 11.6V11.6ZM12 18C8.82001 18 5.83001 15.71 4.10001 12C5.83001 8.29 8.82001 6 12 6C15.18 6 18.17 8.29 19.9 12C18.17 15.71 15.18 18 12 18ZM12 8C11.2089 8 10.4355 8.2346 9.77773 8.67412C9.11993 9.11365 8.60724 9.73836 8.30449 10.4693C8.00174 11.2002 7.92252 12.0044 8.07686 12.7804C8.23121 13.5563 8.61217 14.269 9.17158 14.8284C9.73099 15.3878 10.4437 15.7688 11.2196 15.9231C11.9956 16.0775 12.7998 15.9983 13.5307 15.6955C14.2616 15.3928 14.8864 14.8801 15.3259 14.2223C15.7654 13.5645 16 12.7911 16 12C16 10.9391 15.5786 9.92172 14.8284 9.17157C14.0783 8.42143 13.0609 8 12 8V8ZM12 14C11.6044 14 11.2178 13.8827 10.8889 13.6629C10.56 13.4432 10.3036 13.1308 10.1522 12.7654C10.0009 12.3999 9.96126 11.9978 10.0384 11.6098C10.1156 11.2219 10.3061 10.8655 10.5858 10.5858C10.8655 10.3061 11.2219 10.1156 11.6098 10.0384C11.9978 9.96126 12.3999 10.0009 12.7654 10.1522C13.1308 10.3036 13.4432 10.56 13.6629 10.8889C13.8827 11.2178 14 11.6044 14 12C14 12.5304 13.7893 13.0391 13.4142 13.4142C13.0391 13.7893 12.5304 14 12 14Z"/>
</svg>
