<svg viewBox="0 0 30 30" fill="none" xmlns="http://www.w3.org/2000/svg">
<path d="M18.75 17.5H11.25C10.9185 17.5 10.6005 17.6317 10.3661 17.8661C10.1317 18.1005 10 18.4185 10 18.75C10 19.0815 10.1317 19.3995 10.3661 19.6339C10.6005 19.8683 10.9185 20 11.25 20H18.75C19.0815 20 19.3995 19.8683 19.6339 19.6339C19.8683 19.3995 20 19.0815 20 18.75C20 18.4185 19.8683 18.1005 19.6339 17.8661C19.3995 17.6317 19.0815 17.5 18.75 17.5ZM18.75 12.5H13.75C13.4185 12.5 13.1005 12.6317 12.8661 12.8661C12.6317 13.1005 12.5 13.4185 12.5 13.75C12.5 14.0815 12.6317 14.3995 12.8661 14.6339C13.1005 14.8683 13.4185 15 13.75 15H18.75C19.0815 15 19.3995 14.8683 19.6339 14.6339C19.8683 14.3995 20 14.0815 20 13.75C20 13.4185 19.8683 13.1005 19.6339 12.8661C19.3995 12.6317 19.0815 12.5 18.75 12.5ZM21.25 5H19.775C19.5171 4.27056 19.0399 3.63875 18.4088 3.19117C17.7778 2.7436 17.0237 2.50217 16.25 2.5H13.75C12.9763 2.50217 12.2222 2.7436 11.5912 3.19117C10.9601 3.63875 10.4829 4.27056 10.225 5H8.75C7.75544 5 6.80161 5.39509 6.09835 6.09835C5.39509 6.80161 5 7.75544 5 8.75V23.75C5 24.7446 5.39509 25.6984 6.09835 26.4017C6.80161 27.1049 7.75544 27.5 8.75 27.5H21.25C22.2446 27.5 23.1984 27.1049 23.9017 26.4017C24.6049 25.6984 25 24.7446 25 23.75V8.75C25 7.75544 24.6049 6.80161 23.9017 6.09835C23.1984 5.39509 22.2446 5 21.25 5ZM12.5 6.25C12.5 5.91848 12.6317 5.60054 12.8661 5.36612C13.1005 5.1317 13.4185 5 13.75 5H16.25C16.5815 5 16.8995 5.1317 17.1339 5.36612C17.3683 5.60054 17.5 5.91848 17.5 6.25V7.5H12.5V6.25ZM22.5 23.75C22.5 24.0815 22.3683 24.3995 22.1339 24.6339C21.8995 24.8683 21.5815 25 21.25 25H8.75C8.41848 25 8.10054 24.8683 7.86612 24.6339C7.6317 24.3995 7.5 24.0815 7.5 23.75V8.75C7.5 8.41848 7.6317 8.10054 7.86612 7.86612C8.10054 7.6317 8.41848 7.5 8.75 7.5H10V8.75C10 9.08152 10.1317 9.39946 10.3661 9.63388C10.6005 9.8683 10.9185 10 11.25 10H18.75C19.0815 10 19.3995 9.8683 19.6339 9.63388C19.8683 9.39946 20 9.08152 20 8.75V7.5H21.25C21.5815 7.5 21.8995 7.6317 22.1339 7.86612C22.3683 8.10054 22.5 8.41848 22.5 8.75V23.75Z"/>
</svg>
