<svg viewBox="0 0 30 30" fill="none" xmlns="http://www.w3.org/2000/svg">
<path d="M8.75 20C9.24728 20 9.72419 19.8025 10.0758 19.4508C10.4275 19.0992 10.625 18.6223 10.625 18.125C10.6311 18.0626 10.6311 17.9999 10.625 17.9375L14.1125 14.45H14.4H14.6875L16.7 16.4625C16.7 16.4625 16.7 16.525 16.7 16.5625C16.7 17.0598 16.8975 17.5367 17.2492 17.8883C17.6008 18.24 18.0777 18.4375 18.575 18.4375C19.0723 18.4375 19.5492 18.24 19.9008 17.8883C20.2525 17.5367 20.45 17.0598 20.45 16.5625V16.4625L25 11.875C25.3708 11.875 25.7334 11.765 26.0417 11.559C26.35 11.353 26.5904 11.0601 26.7323 10.7175C26.8742 10.3749 26.9113 9.99792 26.839 9.63421C26.7666 9.27049 26.588 8.9364 26.3258 8.67417C26.0636 8.41195 25.7295 8.23337 25.3658 8.16103C25.0021 8.08868 24.6251 8.12581 24.2825 8.26773C23.9399 8.40964 23.647 8.64996 23.441 8.95831C23.235 9.26665 23.125 9.62916 23.125 10C23.1189 10.0624 23.1189 10.1251 23.125 10.1875L18.6125 14.7H18.4125L16.25 12.5C16.25 12.0027 16.0525 11.5258 15.7008 11.1742C15.3492 10.8225 14.8723 10.625 14.375 10.625C13.8777 10.625 13.4008 10.8225 13.0492 11.1742C12.6975 11.5258 12.5 12.0027 12.5 12.5L8.75 16.25C8.25272 16.25 7.77581 16.4475 7.42417 16.7992C7.07254 17.1508 6.875 17.6277 6.875 18.125C6.875 18.6223 7.07254 19.0992 7.42417 19.4508C7.77581 19.8025 8.25272 20 8.75 20ZM25.625 25H4.375V3.75C4.375 3.41848 4.2433 3.10054 4.00888 2.86612C3.77446 2.6317 3.45652 2.5 3.125 2.5C2.79348 2.5 2.47554 2.6317 2.24112 2.86612C2.0067 3.10054 1.875 3.41848 1.875 3.75V26.25C1.875 26.5815 2.0067 26.8995 2.24112 27.1339C2.47554 27.3683 2.79348 27.5 3.125 27.5H25.625C25.9565 27.5 26.2745 27.3683 26.5089 27.1339C26.7433 26.8995 26.875 26.5815 26.875 26.25C26.875 25.9185 26.7433 25.6005 26.5089 25.3661C26.2745 25.1317 25.9565 25 25.625 25Z"/>
</svg>
