<svg viewBox="0 0 30 30" fill="none" xmlns="http://www.w3.org/2000/svg">
<path d="M25 9.99989L17.5 3.42489C16.8125 2.80994 15.9224 2.46997 15 2.46997C14.0776 2.46997 13.1875 2.80994 12.5 3.42489L5 9.99989C4.60296 10.355 4.28612 10.7906 4.07059 11.2777C3.85505 11.7648 3.74576 12.2922 3.75 12.8249V23.7499C3.75 24.7444 4.14508 25.6983 4.84835 26.4015C5.55161 27.1048 6.50543 27.4999 7.5 27.4999H22.5C23.4946 27.4999 24.4484 27.1048 25.1516 26.4015C25.8549 25.6983 26.25 24.7444 26.25 23.7499V12.8124C26.2525 12.2818 26.1423 11.7568 25.9268 11.272C25.7114 10.7872 25.3955 10.3536 25 9.99989ZM17.5 24.9999H12.5V18.7499C12.5 18.4184 12.6317 18.1004 12.8661 17.866C13.1005 17.6316 13.4185 17.4999 13.75 17.4999H16.25C16.5815 17.4999 16.8995 17.6316 17.1339 17.866C17.3683 18.1004 17.5 18.4184 17.5 18.7499V24.9999ZM23.75 23.7499C23.75 24.0814 23.6183 24.3993 23.3839 24.6338C23.1495 24.8682 22.8315 24.9999 22.5 24.9999H20V18.7499C20 17.7553 19.6049 16.8015 18.9016 16.0982C18.1984 15.395 17.2446 14.9999 16.25 14.9999H13.75C12.7554 14.9999 11.8016 15.395 11.0983 16.0982C10.3951 16.8015 10 17.7553 10 18.7499V24.9999H7.5C7.16848 24.9999 6.85053 24.8682 6.61611 24.6338C6.38169 24.3993 6.25 24.0814 6.25 23.7499V12.8124C6.25022 12.6349 6.28824 12.4595 6.36152 12.2979C6.4348 12.1362 6.54166 11.992 6.675 11.8749L14.175 5.31239C14.4031 5.11199 14.6964 5.00147 15 5.00147C15.3036 5.00147 15.5969 5.11199 15.825 5.31239L23.325 11.8749C23.4583 11.992 23.5652 12.1362 23.6385 12.2979C23.7118 12.4595 23.7498 12.6349 23.75 12.8124V23.7499Z"/>
</svg>
