<svg viewBox="0 0 34 30" fill="none" xmlns="http://www.w3.org/2000/svg">
<path d="M5.52982 15C5.52982 15.3315 5.67547 15.6495 5.93473 15.8839C6.19399 16.1183 6.54562 16.25 6.91227 16.25H17.4051L14.2254 19.1125C14.0959 19.2287 13.993 19.367 13.9228 19.5193C13.8526 19.6716 13.8165 19.835 13.8165 20C13.8165 20.165 13.8526 20.3284 13.9228 20.4807C13.993 20.633 14.0959 20.7713 14.2254 20.8875C14.3539 21.0047 14.5068 21.0977 14.6753 21.1611C14.8438 21.2246 15.0245 21.2572 15.207 21.2572C15.3895 21.2572 15.5702 21.2246 15.7386 21.1611C15.9071 21.0977 16.06 21.0047 16.1885 20.8875L21.7183 15.8875C21.8442 15.7686 21.9428 15.6284 22.0086 15.475C22.1469 15.1707 22.1469 14.8293 22.0086 14.525C21.9428 14.3716 21.8442 14.2314 21.7183 14.1125L16.1885 9.1125C16.0596 8.99595 15.9066 8.9035 15.7382 8.84043C15.5698 8.77735 15.3893 8.74489 15.207 8.74489C15.0247 8.74489 14.8442 8.77735 14.6758 8.84043C14.5073 8.9035 14.3543 8.99595 14.2254 9.1125C14.0965 9.22905 13.9943 9.36741 13.9245 9.51969C13.8548 9.67197 13.8189 9.83518 13.8189 10C13.8189 10.1648 13.8548 10.328 13.9245 10.4803C13.9943 10.6326 14.0965 10.771 14.2254 10.8875L17.4051 13.75H6.91227C6.54562 13.75 6.19399 13.8817 5.93473 14.1161C5.67547 14.3505 5.52982 14.6685 5.52982 15ZM23.5017 2.5H9.67717C8.57722 2.5 7.52233 2.89509 6.74455 3.59835C5.96677 4.30161 5.52982 5.25544 5.52982 6.25V10C5.52982 10.3315 5.67547 10.6495 5.93473 10.8839C6.19399 11.1183 6.54562 11.25 6.91227 11.25C7.27891 11.25 7.63055 11.1183 7.88981 10.8839C8.14907 10.6495 8.29472 10.3315 8.29472 10V6.25C8.29472 5.91848 8.44037 5.60054 8.69963 5.36612C8.95889 5.1317 9.31052 5 9.67717 5H23.5017C23.8683 5 24.2199 5.1317 24.4792 5.36612C24.7385 5.60054 24.8841 5.91848 24.8841 6.25V23.75C24.8841 24.0815 24.7385 24.3995 24.4792 24.6339C24.2199 24.8683 23.8683 25 23.5017 25H9.67717C9.31052 25 8.95889 24.8683 8.69963 24.6339C8.44037 24.3995 8.29472 24.0815 8.29472 23.75V20C8.29472 19.6685 8.14907 19.3505 7.88981 19.1161C7.63055 18.8817 7.27891 18.75 6.91227 18.75C6.54562 18.75 6.19399 18.8817 5.93473 19.1161C5.67547 19.3505 5.52982 19.6685 5.52982 20V23.75C5.52982 24.7446 5.96677 25.6984 6.74455 26.4017C7.52233 27.1049 8.57722 27.5 9.67717 27.5H23.5017C24.6016 27.5 25.6565 27.1049 26.4343 26.4017C27.2121 25.6984 27.649 24.7446 27.649 23.75V6.25C27.649 5.25544 27.2121 4.30161 26.4343 3.59835C25.6565 2.89509 24.6016 2.5 23.5017 2.5Z"/>
</svg>
