<svg width="25" height="25" viewBox="0 0 25 25" fill="none" xmlns="http://www.w3.org/2000/svg">
<path d="M19.75 6.75002H18.47L18.15 5.75002C17.9426 5.16325 17.5577 4.65553 17.0489 4.29718C16.5401 3.93884 15.9324 3.74762 15.31 3.75002H10.19C9.56155 3.7512 8.94933 3.94971 8.43977 4.31753C7.9302 4.68535 7.54901 5.20391 7.35 5.80002L7.03 6.80002H5.75C4.95435 6.80002 4.19129 7.11609 3.62868 7.6787C3.06607 8.24131 2.75 9.00437 2.75 9.80002V17.8C2.75 18.5957 3.06607 19.3587 3.62868 19.9213C4.19129 20.484 4.95435 20.8 5.75 20.8H19.75C20.5456 20.8 21.3087 20.484 21.8713 19.9213C22.4339 19.3587 22.75 18.5957 22.75 17.8V9.80002C22.7566 9.40187 22.6839 9.00638 22.5362 8.63661C22.3884 8.26684 22.1684 7.9302 21.8892 7.64631C21.61 7.36241 21.277 7.13695 20.9097 6.98307C20.5424 6.82919 20.1482 6.74997 19.75 6.75002ZM20.75 17.75C20.75 18.0152 20.6446 18.2696 20.4571 18.4571C20.2696 18.6447 20.0152 18.75 19.75 18.75H5.75C5.48478 18.75 5.23043 18.6447 5.04289 18.4571C4.85536 18.2696 4.75 18.0152 4.75 17.75V9.75002C4.75 9.48481 4.85536 9.23045 5.04289 9.04292C5.23043 8.85538 5.48478 8.75002 5.75 8.75002H7.75C7.96807 8.7614 8.18386 8.7011 8.36443 8.57831C8.545 8.45552 8.68042 8.277 8.75 8.07002L9.29 6.43002C9.35709 6.2314 9.4849 6.05889 9.65537 5.93686C9.82584 5.81484 10.0304 5.74948 10.24 5.75002H15.36C15.5696 5.74948 15.7742 5.81484 15.9446 5.93686C16.1151 6.05889 16.2429 6.2314 16.31 6.43002L16.85 8.07002C16.9142 8.26077 17.0344 8.42771 17.195 8.54903C17.3555 8.67035 17.549 8.7404 17.75 8.75002H19.75C20.0152 8.75002 20.2696 8.85538 20.4571 9.04292C20.6446 9.23045 20.75 9.48481 20.75 9.75002V17.75ZM12.75 8.75002C11.9589 8.75002 11.1855 8.98462 10.5277 9.42414C9.86992 9.86367 9.35723 10.4884 9.05448 11.2193C8.75173 11.9502 8.67252 12.7545 8.82686 13.5304C8.9812 14.3063 9.36216 15.019 9.92157 15.5784C10.481 16.1379 11.1937 16.5188 11.9696 16.6732C12.7456 16.8275 13.5498 16.7483 14.2807 16.4455C15.0116 16.1428 15.6364 15.6301 16.0759 14.9723C16.5154 14.3145 16.75 13.5411 16.75 12.75C16.75 11.6892 16.3286 10.6717 15.5784 9.9216C14.8283 9.17145 13.8109 8.75002 12.75 8.75002ZM12.75 14.75C12.3544 14.75 11.9678 14.6327 11.6389 14.413C11.31 14.1932 11.0536 13.8808 10.9022 13.5154C10.7509 13.1499 10.7113 12.7478 10.7884 12.3598C10.8656 11.9719 11.0561 11.6155 11.3358 11.3358C11.6155 11.0561 11.9719 10.8656 12.3598 10.7885C12.7478 10.7113 13.1499 10.7509 13.5154 10.9023C13.8808 11.0536 14.1932 11.31 14.4129 11.6389C14.6327 11.9678 14.75 12.3545 14.75 12.75C14.75 13.2805 14.5393 13.7892 14.1642 14.1642C13.7891 14.5393 13.2804 14.75 12.75 14.75Z" fill="#727272"/>
</svg>
